<svg id="visual" viewBox="0 0 1200 700" width="1200" height="700" xmlns="http://www.w3.org/2000/svg" xmlns:xlink="http://www.w3.org/1999/xlink" version="1.1"><rect width="1200" height="700" fill="#931F1F"></rect><g><g transform="translate(1163 589)"><path d="M173.9 -52.3C199.6 22.6 176.8 117.3 118.3 159C59.7 200.7 -34.7 189.2 -102.6 140.2C-170.4 91.1 -211.7 4.5 -190.1 -64.6C-168.6 -133.8 -84.3 -185.4 -5.1 -183.7C74.1 -182 148.2 -127.1 173.9 -52.3Z" fill="none" stroke="#e0c6b1" stroke-width="20"></path></g><g transform="translate(49 161)"><path d="M156.3 -57.5C175.9 9.5 146.8 85.7 91.6 125.8C36.3 165.8 -45 169.8 -101.6 130.8C-158.2 91.8 -190.2 9.8 -169.2 -59.2C-148.2 -128.2 -74.1 -184.2 -2.9 -183.3C68.4 -182.4 136.7 -124.5 156.3 -57.5Z" fill="none" stroke="#e0c6b1" stroke-width="20"></path></g></g></svg>